<svg width="20" height="20" fill="none" xmlns="http://www.w3.org/2000/svg"><path d="M10 20a9.671 9.671 0 0 1-3.875-.788 10.126 10.126 0 0 1-3.187-2.15 10.125 10.125 0 0 1-2.15-3.187A9.67 9.67 0 0 1 0 10a9.64 9.64 0 0 1 .788-3.887 10.164 10.164 0 0 1 2.15-3.175A10.14 10.14 0 0 1 6.125.787 9.681 9.681 0 0 1 10 0a9.65 9.65 0 0 1 3.887.787 10.178 10.178 0 0 1 3.175 2.151 10.164 10.164 0 0 1 2.15 3.175A9.64 9.64 0 0 1 20 10v1.45c0 .983-.337 1.82-1.012 2.512S17.483 15 16.5 15c-.6 0-1.158-.133-1.675-.4a3.754 3.754 0 0 1-1.275-1.05A4.972 4.972 0 0 1 10 15c-1.383 0-2.562-.488-3.537-1.463C5.488 12.562 5 11.383 5 10s.488-2.563 1.463-3.538C7.438 5.487 8.617 5 10 5s2.563.487 3.538 1.462C14.513 7.437 15 8.617 15 10v1.45c0 .483.15.862.45 1.137.3.275.65.413 1.05.413s.75-.138 1.05-.413c.3-.275.45-.654.45-1.137V10c0-2.183-.788-4.063-2.363-5.638C14.062 2.787 12.183 2 10 2c-2.183 0-4.063.787-5.638 2.362C2.787 5.937 2 7.817 2 10s.787 4.062 2.362 5.637C5.937 17.212 7.817 18 10 18h4c.283 0 .52.096.712.288A.965.965 0 0 1 15 19c0 .283-.096.52-.288.712A.965.965 0 0 1 14 20h-4Zm0-7c.833 0 1.542-.292 2.125-.875A2.893 2.893 0 0 0 13 10c0-.833-.292-1.542-.875-2.125A2.893 2.893 0 0 0 10 7c-.833 0-1.542.292-2.125.875A2.893 2.893 0 0 0 7 10c0 .833.292 1.542.875 2.125A2.893 2.893 0 0 0 10 13Z" fill="#686868"/></svg>