<svg width="21" height="20" viewBox="0 0 21 20" fill="none" xmlns="http://www.w3.org/2000/svg">
<path d="M9.27417 0L10.9408 3.33333L12.6075 0H9.27417ZM15.2408 0.333333L15.0075 4.06667L18.1075 2L15.2408 0.333333ZM3.77417 2L6.9075 4.06667L6.67417 0.333333L3.77417 2Z" fill="#4AA9FF"/>
<path d="M7.0742 20.0002H3.14087V15.7002L7.74087 16.7669C6.64087 17.9335 7.0742 20.0002 7.0742 20.0002Z" fill="#EBA352"/>
<path d="M6.70754 20H2.30754C2.30754 20 2.3742 17.8667 1.64087 16.0333L7.14087 16.8333C6.50754 18.4667 6.70754 20 6.70754 20ZM6.2742 14.1333H7.94087V6.73333C7.94087 6.23333 7.5742 5.83333 7.10754 5.83333C6.64087 5.83333 6.2742 6.23333 6.2742 6.76667V14.1333ZM4.30754 14.1333H6.2742V6.1C6.2742 5.5 5.84087 5 5.2742 5C4.74087 5 4.2742 5.5 4.2742 6.1V14.1333H4.30754Z" fill="#FFDD67"/>
<path d="M2.60768 14.1334H4.34102V6.56676C4.34102 6.03343 3.94102 5.6001 3.47435 5.6001C3.00768 5.6001 2.60768 6.03343 2.60768 6.56676V14.1334ZM1.80768 6.73343C1.37435 6.73343 1.04102 7.13343 1.04102 7.63343V14.1334H2.60768V7.63343C2.60768 7.13343 2.24102 6.73343 1.80768 6.73343Z" fill="#FFDD67"/>
<path d="M7.10765 5.8H6.94098C7.34098 5.86667 7.64098 6.26667 7.64098 6.7V14.1333H7.94098V6.73333C7.94098 6.23333 7.57432 5.8 7.10765 5.8ZM5.30765 5C5.24098 5 5.20765 5 5.17432 5.03333C5.64098 5.1 6.00765 5.56667 6.00765 6.1V11.4667L6.30765 11.8V6.1C6.27432 5.5 5.84098 5 5.30765 5ZM3.47432 5.6H3.34098C3.74098 5.66667 4.04098 6.06667 4.04098 6.53333V11.4333L4.34098 11.7667V6.56667C4.30765 6.03333 3.94098 5.6 3.47432 5.6ZM1.80765 6.73333C1.74098 6.73333 1.70765 6.73333 1.67432 6.76667C2.04098 6.83333 2.30765 7.2 2.30765 7.63333V11.4667L2.60765 11.8V7.63333C2.60765 7.13333 2.24098 6.73333 1.80765 6.73333Z" fill="#EBA352"/>
<path d="M10.7409 10.7335C10.2409 10.1669 9.24086 10.4335 8.54086 11.9002C8.04086 12.9002 7.90753 12.7002 7.64086 12.7669V11.8669C7.64086 11.8669 1.00752 11.4335 1.00752 12.4335C1.00752 12.4335 0.707524 14.9002 1.34086 16.4335C2.30752 18.7335 7.24086 19.3335 8.77419 15.4335C9.07419 14.6669 9.50753 13.8335 9.84086 13.0002C10.2742 12.0002 11.3075 11.4002 10.7409 10.7335Z" fill="#FFDD67"/>
<path d="M10.4075 10.5C11.4742 11.3 9.50752 12.8333 8.57419 15.2C7.24085 18.6 3.34085 18.6 1.70752 17.0333C3.20752 18.8 7.37419 19.1333 8.77419 15.4333C9.70752 13.0333 11.9742 11.2 10.4075 10.5Z" fill="#EBA352"/>
<path d="M7.94068 12.7331C6.64068 12.2665 3.90734 13.1665 4.27401 15.7665C4.27401 13.3331 6.44068 12.7665 7.64068 12.7665C7.80734 12.7665 7.94068 12.7331 7.94068 12.7331ZM14.8073 19.9998H18.7407V15.6998L14.1407 16.7665C15.2407 17.9331 14.8073 19.9998 14.8073 19.9998Z" fill="#EBA352"/>
<path d="M15.1743 20H19.5743C19.5743 20 19.5076 17.8667 20.2409 16.0333L14.7409 16.8333C15.3743 18.4667 15.1743 20 15.1743 20ZM15.6076 14.1333H13.9409V6.73333C13.9409 6.23333 14.3076 5.83333 14.7743 5.83333C15.2409 5.83333 15.6076 6.23333 15.6076 6.76667V14.1333ZM17.5743 14.1333H15.6076V6.1C15.6076 5.5 16.0409 5 16.6076 5C17.1409 5 17.6076 5.5 17.6076 6.1V14.1333H17.5743Z" fill="#FFDD67"/>
<path d="M19.2741 14.1334H17.5408V6.56676C17.5408 6.03343 17.9408 5.6001 18.4074 5.6001C18.8741 5.6001 19.2741 6.03343 19.2741 6.56676V14.1334ZM20.0741 6.73343C20.5074 6.73343 20.8408 7.13343 20.8408 7.63343V14.1334H19.2741V7.63343C19.2741 7.13343 19.6408 6.73343 20.0741 6.73343Z" fill="#FFDD67"/>
<path d="M14.7743 5.8H14.9409C14.5409 5.86667 14.2409 6.26667 14.2409 6.7V14.1333H13.9409V6.73333C13.9409 6.23333 14.3076 5.8 14.7743 5.8ZM16.5743 5C16.6409 5 16.6743 5 16.7076 5.03333C16.2409 5.1 15.8743 5.56667 15.8743 6.1V11.4667L15.5743 11.8V6.1C15.6076 5.5 16.0409 5 16.5743 5ZM18.4076 5.6H18.5409C18.1409 5.66667 17.8409 6.06667 17.8409 6.53333V11.4333L17.5409 11.7667V6.56667C17.5743 6.03333 17.9409 5.6 18.4076 5.6ZM20.0743 6.73333C20.1409 6.73333 20.1743 6.73333 20.2076 6.76667C19.8409 6.83333 19.5743 7.2 19.5743 7.63333V11.4667L19.2743 11.8V7.63333C19.2743 7.13333 19.6409 6.73333 20.0743 6.73333Z" fill="#EBA352"/>
<path d="M11.1408 10.7335C11.6408 10.1669 12.6408 10.4335 13.3408 11.9002C13.8408 12.9002 13.9742 12.7002 14.2408 12.7669V11.8669C14.2408 11.8669 20.8742 11.4335 20.8742 12.4335C20.8742 12.4335 21.1742 14.9002 20.5408 16.4335C19.5742 18.7335 14.6408 19.3335 13.1075 15.4335C12.8075 14.6669 12.3742 13.8335 12.0408 13.0002C11.6075 12.0002 10.5742 11.4002 11.1408 10.7335Z" fill="#FFDD67"/>
<path d="M11.4742 10.5C10.4075 11.3 12.3742 12.8333 13.3075 15.2C14.6409 18.6 18.5409 18.6 20.1742 17.0333C18.6742 18.8 14.5075 19.1333 13.1075 15.4333C12.1742 13.0333 9.90754 11.2 11.4742 10.5Z" fill="#EBA352"/>
<path d="M13.9409 12.7331C15.2409 12.2665 17.9743 13.1665 17.6076 15.7665C17.6076 13.3331 15.4409 12.7665 14.2409 12.7665C14.0743 12.7665 13.9409 12.7331 13.9409 12.7331Z" fill="#EBA352"/>
</svg>
